<mxfile host="app.diagrams.net" modified="2022-01-12T08:54:18.059Z" agent="5.0 (Windows NT 10.0; Win64; x64) AppleWebKit/537.36 (KHTML, like Gecko) Chrome/97.0.4692.71 Safari/537.36 Edg/97.0.1072.55" etag="zgkWgoPPbStOnghXPqzd" version="15.9.1" type="github">
  <diagram id="-0yvz2wZcKQlab4mpVC8" name="Page-1">
    <mxGraphModel dx="1038" dy="583" grid="1" gridSize="10" guides="1" tooltips="1" connect="1" arrows="1" fold="1" page="1" pageScale="1" pageWidth="827" pageHeight="1169" math="0" shadow="0">
      <root>
        <mxCell id="0" />
        <mxCell id="1" parent="0" />
        <mxCell id="08z4JlakA0HJAYrv_tio-1" value="PyPropArray" style="rounded=0;whiteSpace=wrap;html=1;" vertex="1" parent="1">
          <mxGeometry x="240" y="120" width="160" height="50" as="geometry" />
        </mxCell>
        <mxCell id="08z4JlakA0HJAYrv_tio-2" value="DataBase" style="rounded=0;whiteSpace=wrap;html=1;" vertex="1" parent="1">
          <mxGeometry x="240" y="340" width="160" height="50" as="geometry" />
        </mxCell>
        <mxCell id="08z4JlakA0HJAYrv_tio-3" value="PropArray" style="rounded=0;whiteSpace=wrap;html=1;" vertex="1" parent="1">
          <mxGeometry x="240" y="230" width="160" height="50" as="geometry" />
        </mxCell>
        <mxCell id="08z4JlakA0HJAYrv_tio-4" value="1" style="endArrow=open;html=1;endSize=12;startArrow=diamondThin;startSize=14;startFill=1;edgeStyle=orthogonalEdgeStyle;align=left;verticalAlign=bottom;rounded=0;exitX=0.5;exitY=1;exitDx=0;exitDy=0;" edge="1" parent="1" source="08z4JlakA0HJAYrv_tio-1">
          <mxGeometry x="-1" y="3" relative="1" as="geometry">
            <mxPoint x="330" y="300" as="sourcePoint" />
            <mxPoint x="320" y="230" as="targetPoint" />
          </mxGeometry>
        </mxCell>
        <mxCell id="08z4JlakA0HJAYrv_tio-5" value="1" style="endArrow=open;html=1;endSize=12;startArrow=diamondThin;startSize=14;startFill=1;edgeStyle=orthogonalEdgeStyle;align=left;verticalAlign=bottom;rounded=0;exitX=0.5;exitY=1;exitDx=0;exitDy=0;entryX=0.5;entryY=0;entryDx=0;entryDy=0;" edge="1" parent="1" source="08z4JlakA0HJAYrv_tio-3" target="08z4JlakA0HJAYrv_tio-2">
          <mxGeometry x="-1" y="3" relative="1" as="geometry">
            <mxPoint x="330" y="180" as="sourcePoint" />
            <mxPoint x="330" y="240" as="targetPoint" />
          </mxGeometry>
        </mxCell>
        <mxCell id="08z4JlakA0HJAYrv_tio-9" value="DataInt" style="rounded=0;whiteSpace=wrap;html=1;" vertex="1" parent="1">
          <mxGeometry x="60" y="450" width="160" height="50" as="geometry" />
        </mxCell>
        <mxCell id="08z4JlakA0HJAYrv_tio-17" value="" style="edgeStyle=orthogonalEdgeStyle;rounded=0;orthogonalLoop=1;jettySize=auto;html=1;endArrow=block;endFill=0;endSize=15;" edge="1" parent="1" source="08z4JlakA0HJAYrv_tio-10" target="08z4JlakA0HJAYrv_tio-2">
          <mxGeometry relative="1" as="geometry" />
        </mxCell>
        <mxCell id="08z4JlakA0HJAYrv_tio-10" value="DataFloat" style="rounded=0;whiteSpace=wrap;html=1;" vertex="1" parent="1">
          <mxGeometry x="240" y="450" width="160" height="50" as="geometry" />
        </mxCell>
        <mxCell id="08z4JlakA0HJAYrv_tio-11" value="DataString" style="rounded=0;whiteSpace=wrap;html=1;" vertex="1" parent="1">
          <mxGeometry x="420" y="450" width="160" height="50" as="geometry" />
        </mxCell>
        <mxCell id="08z4JlakA0HJAYrv_tio-13" value="" style="endArrow=block;html=1;rounded=0;exitX=0.5;exitY=0;exitDx=0;exitDy=0;entryX=0.5;entryY=1;entryDx=0;entryDy=0;endFill=0;endSize=15;" edge="1" parent="1" source="08z4JlakA0HJAYrv_tio-9" target="08z4JlakA0HJAYrv_tio-2">
          <mxGeometry width="50" height="50" relative="1" as="geometry">
            <mxPoint x="390" y="330" as="sourcePoint" />
            <mxPoint x="440" y="280" as="targetPoint" />
          </mxGeometry>
        </mxCell>
        <mxCell id="08z4JlakA0HJAYrv_tio-19" value="" style="endArrow=block;html=1;rounded=0;exitX=0.5;exitY=0;exitDx=0;exitDy=0;entryX=0.5;entryY=1;entryDx=0;entryDy=0;endFill=0;endSize=15;" edge="1" parent="1" target="08z4JlakA0HJAYrv_tio-2">
          <mxGeometry width="50" height="50" relative="1" as="geometry">
            <mxPoint x="500" y="450" as="sourcePoint" />
            <mxPoint x="680" y="390" as="targetPoint" />
          </mxGeometry>
        </mxCell>
      </root>
    </mxGraphModel>
  </diagram>
</mxfile>
